<svg id="visual" viewBox="0 0 900 600" width="900" height="600" xmlns="http://www.w3.org/2000/svg" xmlns:xlink="http://www.w3.org/1999/xlink" version="1.1"><g transform="translate(1049.7502586188732 8.31595179383055)"><path d="M227.3 -377.6C276.3 -277.2 285.1 -186.4 285.1 -110.5C285.1 -34.7 276.3 26.1 254.9 80.1C233.6 134 199.7 181.1 155.1 291.6C110.5 402.1 55.3 576 -15.6 597.5C-86.4 618.9 -172.8 487.9 -276.2 396.4C-379.5 305 -499.8 253.2 -551.9 162.8C-603.9 72.4 -587.8 -56.7 -546 -175C-504.3 -293.4 -437 -401.2 -341.7 -486.5C-246.5 -571.9 -123.2 -635 -17 -611.5C89.1 -588 178.3 -478.1 227.3 -377.6" fill="#0076EE"></path></g></svg>